<?xml version="1.0" standalone="no"?>
<!DOCTYPE svg PUBLIC "-//W3C//DTD SVG 20010904//EN"
 "http://www.w3.org/TR/2001/REC-SVG-20010904/DTD/svg10.dtd">
<svg version="1.0" xmlns="http://www.w3.org/2000/svg"
 width="702.000000pt" height="702.000000pt" viewBox="0 0 702.000000 702.000000"
 preserveAspectRatio="xMidYMid meet">
<metadata>
Created by potrace 1.11, written by Peter Selinger 2001-2013
</metadata>
<g transform="translate(0.000000,702.000000) scale(0.100000,-0.100000)"
fill="#000000" stroke="none">
<path d="M1439 5552 c-15 -2 -32 -14 -43 -32 -9 -17 -21 -30 -27 -30 -5 0 -9
-6 -9 -13 0 -8 -9 -22 -20 -32 -11 -10 -20 -24 -20 -31 0 -7 -5 -14 -12 -16
-6 -2 -12 -13 -13 -24 -2 -10 -6 -46 -10 -79 -14 -109 -8 -359 10 -416 7 -22
-1 -21 183 -21 l143 0 -8 -71 c-14 -131 -7 -389 12 -439 6 -16 24 -18 167 -18
l160 0 -8 -42 c-16 -90 -7 -458 11 -476 1 -2 75 -4 163 -4 l161 -1 -5 -35 c-2
-19 -7 -49 -10 -66 -3 -17 -6 -81 -6 -142 l-1 -111 -91 1 -91 0 -38 -54 c-20
-30 -43 -62 -50 -71 -43 -55 -46 -74 -54 -261 l-6 -138 -88 0 c-77 0 -90 -2
-99 -19 -5 -11 -16 -25 -22 -33 -50 -52 -96 -129 -102 -169 -5 -32 -16 -235
-16 -299 0 -3 -39 -5 -87 -4 -73 1 -91 -2 -105 -17 -10 -10 -18 -21 -18 -24 0
-4 -20 -32 -44 -63 -24 -31 -46 -70 -49 -87 -16 -78 -20 -129 -20 -240 0 -109
4 -161 19 -236 l5 -26 264 -1 263 0 63 85 c35 46 64 92 66 101 11 69 17 152
17 238 l1 100 88 -1 c83 0 89 1 104 25 9 14 21 30 27 36 6 6 18 22 26 34 8 13
25 35 36 49 12 14 24 35 27 46 11 34 20 135 21 235 l2 95 87 1 c84 2 88 3 110
30 12 16 25 31 29 32 5 2 8 8 8 14 0 6 15 31 34 57 18 25 36 57 39 71 9 35 19
168 21 253 l1 72 88 0 88 0 60 80 c33 44 62 91 65 105 3 14 8 32 10 40 4 15
17 174 16 195 -4 79 -11 181 -17 221 l-7 51 -160 1 c-88 0 -162 3 -165 6 -3 2
0 26 5 52 14 63 12 357 -2 417 -7 30 -16 47 -26 48 -8 0 -81 1 -162 1 l-148 1
5 26 c24 124 24 377 -1 476 -5 21 -9 22 -169 21 l-164 -1 5 25 c27 142 25 392
-2 483 -5 15 -20 17 -127 17 -67 1 -176 2 -242 3 -66 1 -132 1 -146 -1z"/>
<path d="M3767 5550 c-19 -4 -41 -26 -77 -79 -68 -99 -73 -108 -79 -166 -8
-81 -7 -305 3 -370 10 -73 10 -87 -1 -150 -10 -64 -10 -302 0 -380 11 -74 11
-69 1 -135 -12 -73 -10 -352 3 -415 6 -31 6 -61 0 -80 -12 -39 -15 -353 -3
-425 4 -30 8 -59 8 -65 0 -5 -4 -35 -8 -65 -11 -70 -11 -330 0 -395 11 -60 11
-66 0 -130 -11 -67 -11 -313 0 -395 10 -74 10 -66 -1 -140 -15 -102 -7 -410
12 -440 3 -4 121 -8 264 -8 292 0 257 -9 326 83 16 22 35 47 42 55 7 8 12 17
11 20 -1 3 4 15 10 26 23 43 32 249 17 389 -11 103 -8 266 6 280 7 6 2 169 -7
247 -10 93 -11 149 0 217 4 30 8 101 8 157 1 90 3 102 18 99 24 -5 29 0 96 90
72 95 80 125 83 347 l1 86 348 0 349 -1 -9 -51 c-14 -78 -17 -283 -6 -356 13
-87 13 -130 0 -223 -12 -88 -8 -316 6 -362 9 -31 9 -44 -6 -155 -11 -77 -7
-306 6 -371 5 -25 7 -54 6 -65 -2 -10 -6 -39 -10 -64 -10 -69 -12 -271 -3
-342 16 -119 -20 -105 287 -106 250 0 269 1 278 18 5 10 31 48 57 84 43 60 49
74 60 153 14 94 14 263 1 353 -9 66 -9 104 2 190 10 83 10 237 -1 320 -10 85
-10 110 0 200 12 100 10 282 -5 369 -6 39 -9 74 -6 79 25 41 26 376 1 473 l-7
27 -153 0 c-85 0 -159 3 -164 6 -6 4 -6 18 0 39 24 78 15 443 -12 471 -5 5
-226 10 -521 10 l-513 1 -30 -31 c-56 -58 -103 -129 -115 -174 -7 -25 -14
-106 -15 -180 -3 -129 -4 -135 -24 -138 -19 -3 -21 0 -16 25 19 102 23 277 9
388 -10 81 -10 134 1 225 10 86 10 198 -1 290 -4 41 -8 95 -7 120 0 41 10 155
13 155 13 0 -8 346 -22 360 -6 6 -480 11 -511 5z"/>
</g>
</svg>
