<svg
   width="1024"
   height="1024"
   viewBox="0 0 270.93333 270.93333"
   version="1.1"
   id="svg8">
  <g
     id="layer1"
     transform="translate(0,-26.066695)">
    <g id="g848" transform="translate(0.6473347,-0.52925973)">
      <g id="g856">
        <g
           id="g840"
           style={{fontStyle:'normal', fontVariant:'normal', fontWeight:'normal', font-stretch:'normal', fontSize:274.03271484px, lineHeight:0, fontFamily:VT323, letterSpacing:0px, wordSpacing:0px, fill:#00b900, fillOpacity:1, stroke:none, stroke-width:0.20552453}}
           aria-label="&gt, h"
           transform="translate(5.1734907,-5.2916667)">
          <path
             id="path836"
             style="fontSize:274.03271484px, fill:#00b900, fillOpacity:1, stroke-width:0.20552453"
             d="m 103.92933,164.70836 c 0,4.20183 -0.36538,7.8556 -1.09613,10.9613 l -5.291667,5.29167 -8.409968,-5.29167 c 0.730754,2.92302 1.096131,6.57679 1.096131,10.96131 0,4.20183 -0.365377,7.8556 -1.096131,10.96131 l -5.291667,5.29167 -8.409969,-5.29167 c 0.730754,2.92301 1.096131,6.57678 1.096131,10.96131 0,4.20183 -0.365377,7.8556 -1.096131,10.96131 l -5.291667,5.29167 -8.409968,-5.29167 c 0.730753,2.92301 1.09613,6.57678 1.09613,10.96131 0,4.20183 -0.365377,7.8556 -1.09613,10.96131 l -5.291667,5.29167 -16.630951,-5.29167 c -0.730754,-3.10571 -1.096131,-6.75948 -1.096131,-10.96131 0,-2.4397 -4.195536,-5.66964 -4.195536,-5.66964 l 5.291667,-5.29167 h 13.701636 c -0.730754,-3.10571 -1.096131,-6.75948 -1.096131,-10.96131 0,-2.79399 -4.195536,-5.66964 -4.195536,-5.66964 l 5.291667,-5.29167 h 13.701636 c -0.730754,-3.10571 -1.096131,-6.75948 -1.096131,-10.96131 0,-3.01362 -4.195536,-5.66964 -4.195536,-5.66964 l 5.291667,-5.29167 h 13.701636 c -0.730754,-3.1057 -1.096131,-6.75947 -1.096131,-10.9613 0,-4.38453 0.365377,-8.0383 1.096131,-10.96131 H 67.208948 c -0.730754,-3.10571 -1.096131,-6.75948 -1.096131,-10.96131 0,-4.38453 0.365377,-8.0383 1.096131,-10.96131 H 53.507312 c -0.730754,-3.10571 -1.096131,-6.75948 -1.096131,-10.96131 0,-4.38452 0.365377,-8.03829 1.096131,-10.96131 H 39.805676 c -0.730754,-3.1057 -1.096131,-6.75947 -1.096131,-10.961306 0,-3.713804 -4.195536,-5.669642 -4.195536,-5.669642 0,0 5.17988,-4.84452 5.291667,-5.291667 h 21.922618 c 0.730753,2.923015 1.09613,6.576785 1.09613,10.961309 0,4.201836 -0.365377,7.855606 -1.09613,10.961306 h 13.701635 c 0.730754,2.92302 1.096131,6.57679 1.096131,10.96131 0,4.20183 -0.365377,7.8556 -1.096131,10.96131 h 13.701636 c 0.730754,2.92301 1.096131,6.57678 1.096131,10.96131 0,4.20183 -0.365377,7.8556 -1.096131,10.96131 H 102.8332 c 0.73075,2.92301 1.09613,6.57678 1.09613,10.96131 z"
             />
          <path
             id="path838"
             style="fontSize:274.03271484px, fill:#00b900, fillOpacity:1, stroke-width:0.20552453"
             d="m 160.10594,142.78574 c 0,4.20183 -0.36538,7.8556 -1.09613,10.96131 h 8.22098 c 0.73075,2.92301 1.09613,6.57678 1.09613,10.96131 0,4.20183 -0.36538,7.8556 -1.09613,10.9613 l -5.29167,5.29167 -2.92931,-5.29167 c 0.73075,2.92302 1.09613,6.57679 1.09613,10.96131 0,4.20183 -0.36538,7.8556 -1.09613,10.96131 0.73075,2.92301 1.09613,6.57678 1.09613,10.96131 0,4.20183 -0.36538,7.8556 -1.09613,10.96131 0.73075,2.92301 1.09613,6.57678 1.09613,10.96131 0,4.20183 -0.36538,7.8556 -1.09613,10.96131 l -5.29167,5.29167 -16.63095,-5.29167 c -0.73075,-3.10571 -1.09613,-6.75948 -1.09613,-10.96131 0,-4.38453 0.36538,-8.0383 1.09613,-10.96131 -0.73075,-3.10571 -1.09613,-6.75948 -1.09613,-10.96131 0,-4.38453 0.36538,-8.0383 1.09613,-10.96131 -0.73075,-3.10571 -1.09613,-6.75948 -1.09613,-10.96131 0,-4.38452 0.36538,-8.03829 1.09613,-10.96131 -0.73075,-3.1057 -1.09613,-6.75947 -1.09613,-10.9613 0,-4.38453 0.36538,-8.0383 1.09613,-10.96131 -0.73075,-3.10571 -1.09613,-6.75948 -1.09613,-10.96131 0,-4.38453 0.36538,-8.0383 1.09613,-10.96131 -0.73075,-3.10571 -1.09613,-6.75948 -1.09613,-10.96131 0,-4.38452 0.36538,-8.03829 1.09613,-10.96131 -0.73075,-3.1057 -1.09613,-6.75947 -1.09613,-10.961306 0,-3.059235 -4.19554,-5.669642 -4.19554,-5.669642 l 5.29167,-5.291667 h 21.92262 c 0.73075,2.923015 1.09613,6.576785 1.09613,10.961309 0,4.201836 -0.36538,7.855606 -1.09613,10.961306 0.73075,2.92302 1.09613,6.57679 1.09613,10.96131 0,4.20183 -0.36538,7.8556 -1.09613,10.96131 0.73075,2.92301 1.09613,6.57678 1.09613,10.96131 z m 64.67172,32.88392 c 0.73075,2.92302 1.09613,6.57679 1.09613,10.96131 0,4.20183 -0.36538,7.8556 -1.09613,10.96131 0.73075,2.92301 1.09613,6.57678 1.09613,10.96131 0,4.20183 -0.36538,7.8556 -1.09613,10.96131 0.73075,2.92301 1.09613,6.57678 1.09613,10.96131 0,4.20183 -0.36538,7.8556 -1.09613,10.96131 l -5.29167,5.29167 -16.63095,-5.29167 c -0.73075,-3.10571 -1.09613,-6.75948 -1.09613,-10.96131 0,-4.38453 0.36538,-8.0383 1.09613,-10.96131 -0.73075,-3.10571 -1.09613,-6.75948 -1.09613,-10.96131 0,-4.38453 0.36538,-8.0383 1.09613,-10.96131 -0.73075,-3.10571 -1.09613,-6.75948 -1.09613,-10.96131 0,-4.38452 0.36538,-8.03829 1.09613,-10.96131 -0.73075,-3.1057 -1.09613,-6.75947 -1.09613,-10.9613 0,-4.38453 0.36538,-8.0383 1.09613,-10.96131 h -35.62425 c -0.73075,-3.10571 -1.09613,-6.75948 -1.09613,-10.96131 0,-2.86651 -4.19554,-5.66964 -4.19554,-5.66964 l 5.29167,-5.29167 h 43.84523 c 0.73075,2.92301 1.09613,6.57678 1.09613,10.96131 0,4.20183 -0.36538,7.8556 -1.09613,10.96131 h 13.70164 c 0.73075,2.92301 1.09613,6.57678 1.09613,10.96131 0,4.20183 -0.36538,7.8556 -1.09613,10.9613 z"
            />
        </g>
        <g
           aria-label="&gt, h"
           style="fontStyle:'normal', fontVariant:'normal', fontWeight:'normal', font-stretch:'normal', fontSize:274.03271484px, lineHeight:0, fontFamily:VT323, letterSpacing:0px, wordSpacing:0px, fill:#00ff00, fillOpacity:1, stroke:none, stroke-width:0.20552453"
           id="text821"
           transform="translate(-0.118176)">
          <path
             d="m 103.92933,164.70836 q 0,6.30275 -1.09613,10.9613 H 89.131565 q 1.096131,4.38453 1.096131,10.96131 0,6.30275 -1.096131,10.96131 H 75.429929 q 1.096131,4.38452 1.096131,10.96131 0,6.30275 -1.096131,10.96131 H 61.728294 q 1.09613,4.38452 1.09613,10.96131 0,6.30275 -1.09613,10.96131 H 39.805676 q -1.096131,-4.65856 -1.096131,-10.96131 0,-6.57679 1.096131,-10.96131 h 13.701636 q -1.096131,-4.65856 -1.096131,-10.96131 0,-6.57679 1.096131,-10.96131 h 13.701636 q -1.096131,-4.65856 -1.096131,-10.96131 0,-6.57678 1.096131,-10.96131 h 13.701636 q -1.096131,-4.65855 -1.096131,-10.9613 0,-6.57679 1.096131,-10.96131 H 67.208948 q -1.096131,-4.65856 -1.096131,-10.96131 0,-6.57679 1.096131,-10.96131 H 53.507312 q -1.096131,-4.65856 -1.096131,-10.96131 0,-6.57678 1.096131,-10.96131 H 39.805676 q -1.096131,-4.65855 -1.096131,-10.961306 0,-6.576786 1.096131,-10.961309 h 21.922618 q 1.09613,4.384523 1.09613,10.961309 0,6.302756 -1.09613,10.961306 h 13.701635 q 1.096131,4.38453 1.096131,10.96131 0,6.30275 -1.096131,10.96131 h 13.701636 q 1.096131,4.38452 1.096131,10.96131 0,6.30275 -1.096131,10.96131 H 102.8332 q 1.09613,4.38452 1.09613,10.96131 z"
             style="fontSize:274.03271484px, fill:#00ff00, fillOpacity:1, stroke-width:0.20552453"
             id="path831"/>
          <path
             d="m 160.10594,142.78574 q 0,6.30275 -1.09613,10.96131 h 8.22098 q 1.09613,4.38452 1.09613,10.96131 0,6.30275 -1.09613,10.9613 h -8.22098 q 1.09613,4.38453 1.09613,10.96131 0,6.30275 -1.09613,10.96131 1.09613,4.38452 1.09613,10.96131 0,6.30275 -1.09613,10.96131 1.09613,4.38452 1.09613,10.96131 0,6.30275 -1.09613,10.96131 h -21.92262 q -1.09613,-4.65856 -1.09613,-10.96131 0,-6.57679 1.09613,-10.96131 -1.09613,-4.65856 -1.09613,-10.96131 0,-6.57679 1.09613,-10.96131 -1.09613,-4.65856 -1.09613,-10.96131 0,-6.57678 1.09613,-10.96131 -1.09613,-4.65855 -1.09613,-10.9613 0,-6.57679 1.09613,-10.96131 -1.09613,-4.65856 -1.09613,-10.96131 0,-6.57679 1.09613,-10.96131 -1.09613,-4.65856 -1.09613,-10.96131 0,-6.57678 1.09613,-10.96131 -1.09613,-4.65855 -1.09613,-10.961306 0,-6.576786 1.09613,-10.961309 h 21.92262 q 1.09613,4.384523 1.09613,10.961309 0,6.302756 -1.09613,10.961306 1.09613,4.38453 1.09613,10.96131 0,6.30275 -1.09613,10.96131 1.09613,4.38452 1.09613,10.96131 z m 64.67172,32.88392 q 1.09613,4.38453 1.09613,10.96131 0,6.30275 -1.09613,10.96131 1.09613,4.38452 1.09613,10.96131 0,6.30275 -1.09613,10.96131 1.09613,4.38452 1.09613,10.96131 0,6.30275 -1.09613,10.96131 h -21.92262 q -1.09613,-4.65856 -1.09613,-10.96131 0,-6.57679 1.09613,-10.96131 -1.09613,-4.65856 -1.09613,-10.96131 0,-6.57679 1.09613,-10.96131 -1.09613,-4.65856 -1.09613,-10.96131 0,-6.57678 1.09613,-10.96131 -1.09613,-4.65855 -1.09613,-10.9613 0,-6.57679 1.09613,-10.96131 h -35.62425 q -1.09613,-4.65856 -1.09613,-10.96131 0,-6.57679 1.09613,-10.96131 h 43.84523 q 1.09613,4.38452 1.09613,10.96131 0,6.30275 -1.09613,10.96131 h 13.70164 q 1.09613,4.38452 1.09613,10.96131 0,6.30275 -1.09613,10.9613 z"
             style="fontSize:274.03271484px, fill:#00ff00, fillOpacity:1, stroke-width:0.20552453"
             id="path833" />
        </g>
      </g>
    </g>
  </g>
</svg>